<?xml version="1.0" encoding="UTF-8" standalone="no"?>
<!-- Created with Inkscape (http://www.inkscape.org/) -->

<svg
   version="1.1"
   id="svg2"
   width="566.92932"
   height="326.92932"
   viewBox="0 0 566.92932 326.92932"
   sodipodi:docname="logo IF.ai"
   xmlns:inkscape="http://www.inkscape.org/namespaces/inkscape"
   xmlns:sodipodi="http://sodipodi.sourceforge.net/DTD/sodipodi-0.dtd"
   xmlns="http://www.w3.org/2000/svg"
   xmlns:svg="http://www.w3.org/2000/svg">
  <defs
     id="defs6">
    <clipPath
       clipPathUnits="userSpaceOnUse"
       id="clipPath24">
      <path
         d="M 0,245.197 H 425.197 V 0 H 0 Z"
         id="path22" />
    </clipPath>
  </defs>
  <sodipodi:namedview
     id="namedview4"
     pagecolor="#ffffff"
     bordercolor="#000000"
     borderopacity="0.25"
     inkscape:showpageshadow="2"
     inkscape:pageopacity="0.0"
     inkscape:pagecheckerboard="0"
     inkscape:deskcolor="#d1d1d1" />
  <g
     id="g8"
     inkscape:groupmode="layer"
     inkscape:label="logo IF"
     transform="matrix(1.3333333,0,0,-1.3333333,0,326.92933)">
    <g
       id="g10"
       transform="translate(244.2656,79.857)">
      <path
         d="M 0,0 H 7.065 V 25.291 H 0 v 3.285 H 18.181 V 25.291 H 11.116 V 0 h 7.065 V -3.33 H 0 Z"
         style="fill:#003548;fill-opacity:1;fill-rule:nonzero;stroke:none"
         id="path12" />
    </g>
    <g
       id="g14"
       transform="translate(288.6426,103.5728)">
      <path
         d="m 0,0 -5.265,-17.821 h -4.23 l -5.266,17.686 V -27.047 H -18.54 V 4.86 h 5.85 l 5.4,-18.27 5.266,18.27 H 3.78 V -27.047 H 0 Z"
         style="fill:#003548;fill-opacity:1;fill-rule:nonzero;stroke:none"
         id="path16" />
    </g>
    <g
       id="g18">
      <g
         id="g20"
         clip-path="url(#clipPath24)">
        <g
           id="g26"
           transform="translate(303.499,93.1773)">
          <path
             d="m 0,0 h 7.335 c 2.16,0 3.826,0.495 5.041,1.44 1.215,0.945 1.8,2.385 1.8,4.366 0,1.979 -0.585,3.465 -1.8,4.41 -1.215,0.945 -2.881,1.394 -5.041,1.394 H 0 Z m 7.65,15.256 c 1.621,0 3.105,-0.225 4.411,-0.631 1.305,-0.449 2.43,-1.079 3.375,-1.889 0.945,-0.81 1.665,-1.8 2.16,-2.97 0.495,-1.17 0.719,-2.476 0.719,-3.96 C 18.315,4.32 18.091,2.97 17.596,1.8 17.101,0.63 16.381,-0.36 15.436,-1.17 14.491,-1.98 13.366,-2.609 12.061,-3.016 10.755,-3.42 9.271,-3.646 7.65,-3.646 H 0 V -16.65 h -4.005 v 31.906 z"
             style="fill:#003548;fill-opacity:1;fill-rule:nonzero;stroke:none"
             id="path28" />
        </g>
        <g
           id="g30"
           transform="translate(332.126,89.3072)">
          <path
             d="M 0,0 H 9.765 L 4.859,15.615 Z M 10.979,-3.78 H -1.17 l -2.791,-9 H -8.056 L 2.295,19.126 H 7.604 L 18,-12.78 h -4.185 z"
             style="fill:#003548;fill-opacity:1;fill-rule:nonzero;stroke:none"
             id="path32" />
        </g>
        <g
           id="g34"
           transform="translate(377.043,86.6969)">
          <path
             d="m 0,0 c -0.045,-1.575 -0.405,-3.061 -1.035,-4.364 -0.63,-1.306 -1.441,-2.476 -2.476,-3.421 -1.035,-0.944 -2.205,-1.71 -3.554,-2.205 -1.396,-0.54 -2.835,-0.81 -4.411,-0.81 -3.285,0 -6.03,1.08 -8.235,3.285 -0.9,0.855 -1.62,1.845 -2.115,2.88 -0.54,1.034 -0.945,2.16 -1.17,3.33 -0.271,1.125 -0.45,2.295 -0.495,3.51 -0.09,1.215 -0.135,2.386 -0.135,3.556 0,1.17 0.045,2.34 0.135,3.554 0.045,1.215 0.224,2.386 0.495,3.51 0.225,1.126 0.63,2.25 1.17,3.286 0.495,1.035 1.215,2.025 2.115,2.88 2.295,2.205 5.04,3.33 8.325,3.33 1.531,0 2.97,-0.27 4.321,-0.764 1.349,-0.495 2.519,-1.216 3.554,-2.161 1.035,-0.945 1.846,-2.025 2.476,-3.33 0.585,-1.305 0.945,-2.746 0.99,-4.321 h -4.096 c -0.045,0.945 -0.269,1.846 -0.63,2.7 -0.405,0.811 -0.899,1.531 -1.53,2.161 -0.63,0.584 -1.394,1.081 -2.25,1.44 -0.854,0.315 -1.845,0.495 -2.925,0.495 -2.115,0 -3.915,-0.765 -5.4,-2.34 -0.675,-0.675 -1.17,-1.44 -1.485,-2.295 -0.36,-0.855 -0.63,-1.71 -0.765,-2.61 -0.181,-0.945 -0.27,-1.846 -0.314,-2.79 -0.046,-0.945 -0.046,-1.891 -0.046,-2.745 0,-0.856 0,-1.801 0.046,-2.745 0.044,-0.946 0.133,-1.891 0.314,-2.79 0.135,-0.946 0.405,-1.801 0.765,-2.656 0.315,-0.855 0.81,-1.62 1.485,-2.295 1.485,-1.53 3.285,-2.296 5.4,-2.296 1.036,0 2.025,0.181 2.925,0.541 0.856,0.36 1.62,0.855 2.295,1.485 0.63,0.631 1.125,1.394 1.53,2.25 0.361,0.855 0.585,1.755 0.631,2.745 z"
             style="fill:#003548;fill-opacity:1;fill-rule:nonzero;stroke:none"
             id="path36" />
        </g>
        <g
           id="g38"
           transform="translate(394.9141,76.5269)">
          <path
             d="m 0,0 h -4.05 v 28.171 h -10.756 v 3.735 H 10.755 V 28.171 H 0 Z"
             style="fill:#003548;fill-opacity:1;fill-rule:nonzero;stroke:none"
             id="path40" />
        </g>
        <g
           id="g42"
           transform="translate(248.3525,37.5064)">
          <path
             d="M 0,0 H 14.671 V -3.78 H 0 V -17.82 H -4.005 V 14.086 H 17.37 v -3.69 l -17.37,0 z"
             style="fill:#003548;fill-opacity:1;fill-rule:nonzero;stroke:none"
             id="path44" />
        </g>
        <g
           id="g46"
           transform="translate(289.1748,35.9312)">
          <path
             d="m 0,0 c 0,0.81 0,1.665 -0.045,2.61 -0.046,0.946 -0.136,1.845 -0.27,2.745 -0.135,0.901 -0.406,1.755 -0.72,2.611 -0.361,0.854 -0.856,1.575 -1.486,2.25 -0.765,0.764 -1.62,1.349 -2.474,1.71 -0.901,0.315 -1.891,0.495 -2.926,0.495 -1.035,0 -2.025,-0.18 -2.88,-0.54 -0.9,-0.36 -1.755,-0.945 -2.52,-1.71 -0.63,-0.675 -1.125,-1.396 -1.44,-2.205 -0.36,-0.856 -0.631,-1.71 -0.765,-2.611 -0.135,-0.9 -0.225,-1.799 -0.27,-2.745 -0.046,-0.945 -0.046,-1.8 -0.046,-2.61 v -0.63 c 0,-0.809 0,-1.665 0.046,-2.61 0.045,-0.945 0.135,-1.845 0.27,-2.745 0.134,-0.9 0.405,-1.755 0.765,-2.611 0.315,-0.854 0.81,-1.575 1.44,-2.25 0.765,-0.764 1.62,-1.349 2.52,-1.664 0.855,-0.36 1.845,-0.54 2.88,-0.54 1.035,0 2.025,0.18 2.926,0.54 0.854,0.315 1.709,0.9 2.474,1.664 0.63,0.675 1.125,1.396 1.486,2.25 0.314,0.856 0.585,1.711 0.72,2.611 0.134,0.9 0.224,1.8 0.27,2.745 C 0,-2.295 0,-1.439 0,-0.63 Z M 4.14,-0.314 C 4.14,-1.575 4.095,-2.835 4.05,-4.05 3.96,-5.266 3.78,-6.435 3.51,-7.561 3.24,-8.686 2.834,-9.766 2.34,-10.801 c -0.495,-1.034 -1.215,-1.934 -2.07,-2.79 -1.125,-1.125 -2.385,-1.979 -3.736,-2.474 -1.394,-0.54 -2.88,-0.81 -4.455,-0.81 -1.574,0 -3.059,0.27 -4.41,0.81 -1.396,0.495 -2.655,1.349 -3.78,2.474 -0.856,0.856 -1.576,1.756 -2.07,2.79 -0.496,1.035 -0.9,2.115 -1.171,3.24 -0.269,1.126 -0.45,2.295 -0.495,3.511 -0.09,1.215 -0.134,2.475 -0.134,3.736 0,1.259 0.044,2.519 0.134,3.734 0.045,1.216 0.226,2.431 0.495,3.556 0.271,1.125 0.675,2.16 1.171,3.195 0.494,1.035 1.214,1.934 2.07,2.79 1.125,1.125 2.384,1.979 3.78,2.519 1.351,0.496 2.836,0.766 4.41,0.766 1.575,0 3.061,-0.27 4.455,-0.766 1.351,-0.54 2.611,-1.394 3.736,-2.519 0.855,-0.856 1.575,-1.755 2.07,-2.79 C 2.834,9.136 3.24,8.101 3.51,6.976 3.78,5.851 3.96,4.636 4.05,3.42 4.095,2.205 4.14,0.945 4.14,-0.314"
             style="fill:#003548;fill-opacity:1;fill-rule:nonzero;stroke:none"
             id="path48" />
        </g>
        <g
           id="g50"
           transform="translate(316.5859,42.2769)">
          <path
             d="M 0,0 C 0,1.035 -0.18,1.89 -0.495,2.61 -0.81,3.285 -1.305,3.87 -1.89,4.319 -2.475,4.771 -3.195,5.085 -4.005,5.31 -4.815,5.535 -5.671,5.625 -6.615,5.625 H -13.23 V -5.581 h 6.615 c 0.944,0 1.8,0.091 2.61,0.315 0.81,0.181 1.53,0.495 2.115,0.946 0.585,0.45 1.08,1.035 1.395,1.755 C -0.18,-1.891 0,-1.035 0,0 m -6.615,-9.315 h -6.615 v -13.277 h -4.005 V 9.315 H -6.48 c 1.62,0 3.104,-0.224 4.41,-0.629 C -0.765,8.28 0.314,7.65 1.26,6.84 2.205,6.03 2.925,5.04 3.42,3.915 3.915,2.745 4.14,1.44 4.14,0 4.14,-2.025 3.556,-3.825 2.431,-5.355 1.305,-6.931 -0.405,-8.011 -2.61,-8.596 l 6.885,-13.996 h -4.501 z"
             style="fill:#003548;fill-opacity:1;fill-rule:nonzero;stroke:none"
             id="path52" />
        </g>
        <g
           id="g54"
           transform="translate(349.1279,29.856)">
          <path
             d="m 0,0 c -0.045,-1.575 -0.405,-3.06 -1.035,-4.365 -0.63,-1.305 -1.441,-2.476 -2.476,-3.42 -1.034,-0.945 -2.205,-1.71 -3.554,-2.205 -1.396,-0.54 -2.835,-0.811 -4.411,-0.811 -3.285,0 -6.03,1.081 -8.235,3.285 -0.9,0.856 -1.62,1.846 -2.115,2.881 -0.54,1.034 -0.945,2.16 -1.17,3.33 -0.271,1.125 -0.45,2.295 -0.495,3.51 -0.09,1.215 -0.135,2.386 -0.135,3.556 0,1.17 0.045,2.34 0.135,3.554 0.045,1.215 0.224,2.386 0.495,3.51 0.225,1.125 0.63,2.251 1.17,3.286 0.495,1.035 1.215,2.025 2.115,2.88 2.295,2.205 5.04,3.33 8.325,3.33 1.531,0 2.971,-0.27 4.321,-0.764 1.349,-0.496 2.52,-1.216 3.554,-2.161 1.035,-0.945 1.846,-2.025 2.476,-3.331 0.585,-1.304 0.945,-2.745 0.99,-4.32 h -4.096 c -0.045,0.945 -0.269,1.846 -0.63,2.701 -0.405,0.81 -0.899,1.53 -1.53,2.16 -0.63,0.584 -1.394,1.081 -2.25,1.44 -0.855,0.315 -1.845,0.495 -2.925,0.495 -2.115,0 -3.915,-0.765 -5.4,-2.34 -0.675,-0.676 -1.17,-1.44 -1.485,-2.296 -0.36,-0.854 -0.63,-1.71 -0.765,-2.609 -0.181,-0.945 -0.27,-1.846 -0.315,-2.791 -0.045,-0.944 -0.045,-1.89 -0.045,-2.744 0,-0.856 0,-1.801 0.045,-2.745 0.045,-0.946 0.134,-1.891 0.315,-2.79 0.135,-0.946 0.405,-1.801 0.765,-2.656 0.315,-0.854 0.81,-1.62 1.485,-2.296 1.485,-1.529 3.285,-2.295 5.4,-2.295 1.036,0 2.026,0.18 2.925,0.541 0.856,0.36 1.62,0.855 2.295,1.485 0.631,0.63 1.126,1.394 1.53,2.25 0.361,0.855 0.585,1.755 0.63,2.745 z"
             style="fill:#003548;fill-opacity:1;fill-rule:nonzero;stroke:none"
             id="path56" />
        </g>
        <g
           id="g58"
           transform="translate(355.748,51.5924)">
          <path
             d="M 0,0 H 20.521 V -3.69 H 4.006 v -9.946 h 13.005 v -3.78 H 4.006 v -10.8 h 16.515 v -3.69 l -20.521,0 z"
             style="fill:#003548;fill-opacity:1;fill-rule:nonzero;stroke:none"
             id="path60" />
        </g>
        <g
           id="g62"
           transform="translate(107.2002,17.5885)">
          <path
             d="M 0,0 H 36.142 V 56.804 H 75.954 V 92.978 H 36.142 v 31.652 h 76.519 v 35.891 L 0,160.521 Z m -68.331,0 h 36.142 v 160.521 h -36.142 z m 18.071,170.413 c 12.989,0 23.718,10.457 23.718,23.456 0,13.001 -10.729,23.739 -23.718,23.739 -12.989,0 -23.435,-10.738 -23.435,-23.739 0,-12.999 10.446,-23.456 23.435,-23.456"
             style="fill:#00afe6;fill-opacity:1;fill-rule:nonzero;stroke:none"
             id="path64" />
        </g>
      </g>
    </g>
  </g>
</svg>
